<svg xmlns="http://www.w3.org/2000/svg" xmlns:xlink="http://www.w3.org/1999/xlink" version="1.1" x="0px" y="0px" viewBox="0 0 100 125" enable-background="new 0 0 100 100" xml:space="preserve"><path d="M95.535,62h-3.733C91.57,61.542,91,60.901,91,60.146V60h0.026c-0.813-2.548-1.584-6.377-1.584-9.5  c0-4.132,1.348-8.5,2.359-11.5h3.733C96.896,39,98,37.861,98,36.5S96.896,34,95.535,34H16.5l-2.791,0.727L11.293,34h-0.362  C6.21,34,2,37.647,2,42.26v16.602C2,63.476,6.21,67,10.931,67h0.338l2.6-0.727L16.479,67h79.056C96.896,67,98,65.861,98,64.5  S96.896,62,95.535,62z M17.152,62l-3.287-0.766l-2.881,0.979C9.12,62.07,8,60.663,8,58.862V42.26c0-1.794,1.108-3.271,2.962-3.424  l2.826,0.992L17.131,39h73.787c-0.107,0.316-0.219,0.655-0.33,1H17v1h73.276c-0.099,0.324-0.196,0.659-0.293,1H16v1h73.712  c-0.084,0.325-0.158,0.666-0.237,1H15v1h74.248c-0.068,0.33-0.128,0.665-0.188,1H15v1h73.9c-0.049,0.332-0.079,0.667-0.116,1H15v1  h73.687c-0.024,0.333-0.035,0.667-0.044,1H15v1h73.63c0.008,0.327,0.024,0.662,0.046,1H15v1h73.757c0.033,0.332,0.069,0.666,0.112,1  H15v1h74.01c0.053,0.337,0.111,0.67,0.172,1H15v1h74.378c0.071,0.341,0.146,0.676,0.223,1H16v1h73.857  c0.095,0.35,0.191,0.686,0.29,1H17v1h73.49c0.145,0.386,0.288,0.727,0.428,1H17.152z"/><text x="0" y="115" fill="#000000" font-size="5px" font-weight="bold" font-family="'Helvetica Neue', Helvetica, Arial-Unicode, Arial, Sans-serif">Created by B. Agustín Amenábar Larraín</text><text x="0" y="120" fill="#000000" font-size="5px" font-weight="bold" font-family="'Helvetica Neue', Helvetica, Arial-Unicode, Arial, Sans-serif">from the Noun Project</text></svg>